<svg height="477.60001pt" viewBox="0 0 477.60001 477.60001" width="477.60001pt" xmlns="http://www.w3.org/2000/svg"><path d="m477.601562 238.800781c0 131.886719-106.914062 238.800781-238.800781 238.800781s-238.800781-106.914062-238.800781-238.800781 106.914062-238.800781 238.800781-238.800781 238.800781 106.914062 238.800781 238.800781zm0 0" fill="#382b73"/><path d="m445.398438 238.800781c0 114.101563-92.496094 206.597657-206.597657 206.597657-114.101562 0-206.597656-92.496094-206.597656-206.597657 0-114.101562 92.496094-206.597656 206.597656-206.597656 114.101563 0 206.597657 92.496094 206.597657 206.597656zm0 0" fill="#473080"/><path d="m401.171875 265.546875c0-1.304687-.082031-2.582031-.195313-3.855469-.035156-.402344-.085937-.800781-.132812-1.203125-.109375-.902343-.246094-1.800781-.410156-2.6875-.074219-.398437-.136719-.796875-.21875-1.191406-.234375-1.078125-.496094-2.140625-.804688-3.183594-.003906.007813-.007812.015625-.007812.023438-5.214844-17.613281-21.496094-30.472657-40.800782-30.472657-2.277343 0-4.496093.230469-6.675781.574219.308594-2.128906.523438-4.285156.523438-6.5 0-24.652343-19.984375-44.636719-44.636719-44.636719-4.511719 0-8.863281.683594-12.96875 1.929688.019531-.640625.046875-1.28125.046875-1.929688 0-30.976562-25.113281-56.09375-56.09375-56.09375-30.976563 0-56.089844 25.117188-56.089844 56.09375 0 1.070313.035157 2.128907.09375 3.1875-5.105469-2.035156-10.660156-3.1875-16.492187-3.1875-24.652344 0-44.636719 19.984376-44.636719 44.636719 0 2.070313.191406 4.089844.460937 6.082031-1.039062-.074218-2.078124-.15625-3.136718-.15625-19.300782 0-35.585938 12.859376-40.796875 30.472657-.003907-.007813-.007813-.015625-.007813-.023438-.3125 1.042969-.574218 2.109375-.804687 3.183594-.085938.394531-.148438.792969-.222657 1.191406-.160156.890625-.300781 1.785157-.40625 2.6875-.050781.402344-.097656.800781-.132812 1.203125-.117188 1.269532-.195312 2.550782-.195312 3.855469 0 1.46875.074218 2.921875.21875 4.351563.292968 2.863281.867187 5.640624 1.695312 8.304687.832031 2.667969 1.914062 5.222656 3.222656 7.632813.65625 1.207031 1.371094 2.378906 2.132813 3.511718 1.167969 1.722656 2.492187 3.328125 3.890625 4.859375 7.785156 8.527344 18.953125 13.910157 31.410156 13.910157h22.277344v67.90625c0 3.375 2.734375 6.109374 6.109375 6.109374h182.828125c3.375 0 6.109375-2.734374 6.109375-6.109374v-67.90625h22.277343c13.222657 0 25.039063-6.03125 32.847657-15.492188 5.207031-6.308594 8.628906-14.140625 9.503906-22.726562.144531-1.429688.21875-2.882813.21875-4.351563zm0 0" fill="#382b73"/><path d="m358.601562 208.121094c-2.277343 0-4.496093.230468-6.675781.574218.308594-2.128906.523438-4.289062.523438-6.5 0-24.652343-19.984375-44.636718-44.636719-44.636718-4.511719 0-8.863281.683594-12.96875 1.929687.019531-.640625.046875-1.28125.046875-1.929687 0-30.980469-25.113281-56.09375-56.09375-56.09375-30.976563 0-56.089844 25.113281-56.089844 56.09375 0 1.070312.035157 2.128906.09375 3.183594-5.105469-2.03125-10.660156-3.183594-16.492187-3.183594-24.652344 0-44.636719 19.984375-44.636719 44.636718 0 2.070313.191406 4.089844.460937 6.082032-1.039062-.074219-2.078124-.15625-3.136718-.15625-23.507813 0-42.566406 19.058594-42.566406 42.570312 0 23.507813 19.058593 42.570313 42.566406 42.570313h239.601562c23.511719 0 42.570313-19.0625 42.570313-42.570313 0-23.511718-19.054688-42.570312-42.566407-42.570312zm0 0" fill="#fff"/><path d="m358.601562 269.019531h-239.601562c-19.296875 0-35.589844-12.847656-40.808594-30.453125-1.140625 3.84375-1.761718 7.910156-1.761718 12.121094 0 23.511719 19.058593 42.570312 42.570312 42.570312h239.601562c23.507813 0 42.570313-19.058593 42.570313-42.570312 0-4.210938-.625-8.277344-1.761719-12.121094-5.222656 17.605469-21.511718 30.453125-40.808594 30.453125zm0 0" fill="#e6e7e8"/><path d="m330.214844 367.277344h-182.828125c-3.375 0-6.113281-2.738282-6.113281-6.113282v-134.0625c0-3.378906 2.738281-6.113281 6.113281-6.113281h182.824219c3.378906 0 6.113281 2.734375 6.113281 6.113281v134.0625c0 3.375-2.734375 6.113282-6.109375 6.113282zm0 0" fill="#a72973"/><path d="m330.214844 361.679688h-182.828125c-3.375 0-6.113281-2.738282-6.113281-6.113282v-134.0625c0-3.378906 2.738281-6.113281 6.113281-6.113281h182.824219c3.378906 0 6.113281 2.734375 6.113281 6.113281v134.0625c0 3.375-2.734375 6.113282-6.109375 6.113282zm0 0" fill="#f06ea9"/><path d="m324.265625 352.292969h-169.5625c-1.546875 0-2.800781-1.253907-2.800781-2.800781v-48.378907c0-1.546875 1.253906-2.800781 2.800781-2.800781h169.5625c1.542969 0 2.796875 1.253906 2.796875 2.800781v48.378907c.003906 1.546874-1.25 2.800781-2.796875 2.800781zm0 0" fill="#ef5a9d"/><path d="m324.265625 281.007812h-169.5625c-1.546875 0-2.800781-1.253906-2.800781-2.800781v-49.070312c0-1.542969 1.253906-2.796875 2.800781-2.796875h169.5625c1.542969 0 2.796875 1.253906 2.796875 2.796875v49.070312c.003906 1.546875-1.25 2.800781-2.796875 2.800781zm0 0" fill="#ef5a9d"/><path d="m151.902344 237.777344h175.164062v-8.640625c0-1.542969-1.253906-2.796875-2.800781-2.796875h-169.5625c-1.546875 0-2.800781 1.253906-2.800781 2.796875zm0 0" fill="#e43d91"/><path d="m151.902344 309.769531h175.164062v-8.636719c0-1.546874-1.253906-2.800781-2.800781-2.800781h-169.5625c-1.546875 0-2.800781 1.253907-2.800781 2.800781zm0 0" fill="#e43d91"/><path d="m171.460938 280.820312h-11.886719c-1.269531 0-2.300781-1.027343-2.300781-2.300781v-41.242187c0-1.269532 1.03125-2.300782 2.300781-2.300782h11.886719c1.269531 0 2.300781 1.03125 2.300781 2.300782v41.242187c0 1.273438-1.03125 2.300781-2.300781 2.300781zm0 0" fill="#e6e7e8"/><path d="m168.792969 280.820312h-6.550781c-1 0-1.804688-.804687-1.804688-1.804687v-42.234375c0-.996094.804688-1.804688 1.804688-1.804688h6.550781c.996093 0 1.804687.808594 1.804687 1.804688v42.234375c0 1-.808594 1.804687-1.804687 1.804687zm0 0" fill="#fff"/><path d="m171.460938 278.523438h-11.886719c-1.269531 0-2.300781-1.03125-2.300781-2.300782v2.300782c0 1.269531 1.03125 2.296874 2.300781 2.296874h11.886719c1.269531 0 2.300781-1.027343 2.300781-2.296874v-2.300782c0 1.269532-1.03125 2.300782-2.300781 2.300782zm0 0" fill="#e6e7e8"/><path d="m191.261719 280.820312h-11.890625c-1.269532 0-2.300782-1.027343-2.300782-2.300781v-41.242187c0-1.269532 1.03125-2.300782 2.300782-2.300782h11.890625c1.269531 0 2.300781 1.03125 2.300781 2.300782v41.242187c-.003906 1.273438-1.03125 2.300781-2.300781 2.300781zm0 0" fill="#f7cb15"/><path d="m188.589844 280.820312h-6.550782c-.996093 0-1.804687-.804687-1.804687-1.804687v-42.234375c0-.996094.808594-1.804688 1.804687-1.804688h6.550782c1 0 1.804687.808594 1.804687 1.804688v42.234375c0 1-.804687 1.804687-1.804687 1.804687zm0 0" fill="#fede3a"/><path d="m191.261719 278.523438h-11.890625c-1.269532 0-2.300782-1.03125-2.300782-2.300782v2.300782c0 1.269531 1.03125 2.296874 2.300782 2.296874h11.890625c1.269531 0 2.300781-1.027343 2.300781-2.296874v-2.300782c-.003906 1.269532-1.03125 2.300782-2.300781 2.300782zm0 0" fill="#f7cb15"/><path d="m281.570312 280.820312h-11.886718c-1.269532 0-2.300782-1.027343-2.300782-2.300781v-41.242187c0-1.269532 1.03125-2.300782 2.300782-2.300782h11.886718c1.273438 0 2.300782 1.03125 2.300782 2.300782v41.242187c.003906 1.273438-1.027344 2.300781-2.300782 2.300781zm0 0" fill="#e6e7e8"/><path d="m278.902344 280.820312h-6.546875c-1 0-1.808594-.804687-1.808594-1.804687v-42.234375c0-.996094.808594-1.804688 1.808594-1.804688h6.546875c1 0 1.808594.808594 1.808594 1.804688v42.234375c0 1-.808594 1.804687-1.808594 1.804687zm0 0" fill="#fff"/><path d="m281.570312 278.523438h-11.886718c-1.269532 0-2.300782-1.03125-2.300782-2.300782v2.300782c0 1.269531 1.03125 2.296874 2.300782 2.296874h11.886718c1.273438 0 2.300782-1.027343 2.300782-2.296874v-2.300782c.003906 1.269532-1.027344 2.300782-2.300782 2.300782zm0 0" fill="#e6e7e8"/><path d="m270.546875 240.777344h10.164063v15.074218h-10.164063zm0 0" fill="#e6e7e8"/><path d="m267.382812 240.777344h3.164063v15.074218h-3.164063zm0 0" fill="#d1d3d4"/><path d="m280.710938 240.777344h3.164062v15.074218h-3.164062zm0 0" fill="#d1d3d4"/><path d="m211.058594 280.820312h-11.886719c-1.273437 0-2.304687-1.027343-2.304687-2.300781v-41.242187c0-1.269532 1.03125-2.300782 2.304687-2.300782h11.886719c1.269531 0 2.300781 1.03125 2.300781 2.300782v41.242187c0 1.273438-1.03125 2.300781-2.300781 2.300781zm0 0" fill="#009add"/><path d="m208.386719 280.820312h-6.546875c-1 0-1.808594-.804687-1.808594-1.804687v-42.234375c0-.996094.808594-1.804688 1.808594-1.804688h6.546875c1 0 1.808593.808594 1.808593 1.804688v42.234375c0 1-.808593 1.804687-1.808593 1.804687zm0 0" fill="#1caee4"/><path d="m211.058594 278.523438h-11.886719c-1.273437 0-2.304687-1.03125-2.304687-2.300782v2.300782c0 1.269531 1.03125 2.296874 2.304687 2.296874h11.886719c1.269531 0 2.300781-1.027343 2.300781-2.296874v-2.300782c0 1.269532-1.03125 2.300782-2.300781 2.300782zm0 0" fill="#009add"/><path d="m196.867188 240.777344h16.492187v15.074218h-16.492187zm0 0" fill="#27c1e6"/><path d="m196.867188 240.777344h3.164062v15.074218h-3.164062zm0 0" fill="#1caee4"/><path d="m210.195312 240.777344h3.164063v15.074218h-3.164063zm0 0" fill="#1caee4"/><path d="m230.855469 280.820312h-11.886719c-1.269531 0-2.304688-1.027343-2.304688-2.300781v-41.242187c0-1.269532 1.03125-2.300782 2.304688-2.300782h11.886719c1.269531 0 2.300781 1.03125 2.300781 2.300782v41.242187c0 1.273438-1.03125 2.300781-2.300781 2.300781zm0 0" fill="#f7cb15"/><path d="m228.1875 280.820312h-6.550781c-1 0-1.808594-.804687-1.808594-1.804687v-42.234375c0-.996094.808594-1.804688 1.808594-1.804688h6.550781c.996094 0 1.804688.808594 1.804688 1.804688v42.234375c0 1-.808594 1.804687-1.804688 1.804687zm0 0" fill="#fede3a"/><path d="m230.855469 278.523438h-11.886719c-1.269531 0-2.304688-1.03125-2.304688-2.300782v2.300782c0 1.269531 1.03125 2.296874 2.304688 2.296874h11.886719c1.269531 0 2.300781-1.027343 2.300781-2.296874v-2.300782c0 1.269532-1.03125 2.300782-2.300781 2.300782zm0 0" fill="#f7cb15"/><path d="m242.695312 352.292969h-11.886718c-1.269532 0-2.300782-1.03125-2.300782-2.300781v-41.246094c0-1.269532 1.03125-2.296875 2.300782-2.296875h11.886718c1.269532 0 2.300782 1.027343 2.300782 2.296875v41.246094c0 1.269531-1.03125 2.300781-2.300782 2.300781zm0 0" fill="#e6e7e8"/><path d="m240.027344 352.292969h-6.550782c-1 0-1.804687-.808594-1.804687-1.808594v-42.230469c0-1 .804687-1.808594 1.804687-1.808594h6.550782c.996094 0 1.804687.808594 1.804687 1.808594v42.230469c.003907 1-.808593 1.808594-1.804687 1.808594zm0 0" fill="#fff"/><path d="m242.695312 349.992188h-11.886718c-1.269532 0-2.300782-1.03125-2.300782-2.300782v2.300782c0 1.269531 1.03125 2.300781 2.300782 2.300781h11.886718c1.269532 0 2.300782-1.03125 2.300782-2.300781v-2.300782c0 1.269532-1.03125 2.300782-2.300782 2.300782zm0 0" fill="#e6e7e8"/><path d="m207.855469 352.292969h-11.886719c-1.269531 0-2.300781-1.03125-2.300781-2.300781v-41.246094c0-1.269532 1.03125-2.296875 2.300781-2.296875h11.886719c1.269531 0 2.300781 1.027343 2.300781 2.296875v41.246094c0 1.269531-1.03125 2.300781-2.300781 2.300781zm0 0" fill="#009add"/><path d="m205.1875 352.292969h-6.550781c-1 0-1.808594-.808594-1.808594-1.808594v-42.230469c0-1 .808594-1.808594 1.808594-1.808594h6.550781c.996094 0 1.804688.808594 1.804688 1.808594v42.230469c0 1-.808594 1.808594-1.804688 1.808594zm0 0" fill="#1caee4"/><path d="m207.855469 349.992188h-11.886719c-1.269531 0-2.300781-1.03125-2.300781-2.300782v2.300782c0 1.269531 1.03125 2.300781 2.300781 2.300781h11.886719c1.269531 0 2.300781-1.03125 2.300781-2.300781v-2.300782c0 1.269532-1.03125 2.300782-2.300781 2.300782zm0 0" fill="#009add"/><path d="m262.492188 352.292969h-11.886719c-1.269531 0-2.300781-1.03125-2.300781-2.300781v-41.246094c0-1.269532 1.03125-2.296875 2.300781-2.296875h11.886719c1.273437 0 2.300781 1.027343 2.300781 2.296875v41.246094c0 1.269531-1.027344 2.300781-2.300781 2.300781zm0 0" fill="#f7cb15"/><path d="m259.824219 352.292969h-6.550781c-.996094 0-1.804688-.808594-1.804688-1.808594v-42.230469c0-1 .808594-1.808594 1.804688-1.808594h6.550781c.996093 0 1.804687.808594 1.804687 1.808594v42.230469c.003906 1-.808594 1.808594-1.804687 1.808594zm0 0" fill="#fede3a"/><path d="m262.492188 349.992188h-11.886719c-1.269531 0-2.300781-1.03125-2.300781-2.300782v2.300782c0 1.269531 1.03125 2.300781 2.300781 2.300781h11.886719c1.273437 0 2.300781-1.03125 2.300781-2.300781v-2.300782c0 1.269532-1.027344 2.300782-2.300781 2.300782zm0 0" fill="#f7cb15"/><path d="m251.46875 312.246094h10.160156v15.074218h-10.160156zm0 0" fill="#fff335"/><path d="m248.304688 312.246094h3.164062v15.074218h-3.164062zm0 0" fill="#fede3a"/><path d="m261.632812 312.246094h3.164063v15.074218h-3.164063zm0 0" fill="#fede3a"/><path d="m282.292969 352.292969h-11.890625c-1.269532 0-2.296875-1.03125-2.296875-2.300781v-41.246094c0-1.269532 1.027343-2.296875 2.296875-2.296875h11.890625c1.269531 0 2.300781 1.027343 2.300781 2.296875v41.246094c0 1.269531-1.03125 2.300781-2.300781 2.300781zm0 0" fill="#009add"/><path d="m279.621094 352.292969h-6.550782c-.996093 0-1.804687-.808594-1.804687-1.808594v-42.230469c0-1 .808594-1.808594 1.804687-1.808594h6.550782c1 0 1.808594.808594 1.808594 1.808594v42.230469c0 1-.808594 1.808594-1.808594 1.808594zm0 0" fill="#1caee4"/><path d="m282.292969 349.992188h-11.890625c-1.269532 0-2.296875-1.03125-2.296875-2.300782v2.300782c0 1.269531 1.027343 2.300781 2.296875 2.300781h11.890625c1.269531 0 2.300781-1.03125 2.300781-2.300781v-2.300782c0 1.269532-1.03125 2.300782-2.300781 2.300782zm0 0" fill="#009add"/><path d="m302.089844 352.292969h-11.886719c-1.269531 0-2.304687-1.03125-2.304687-2.300781v-41.246094c0-1.269532 1.03125-2.296875 2.304687-2.296875h11.886719c1.269531 0 2.300781 1.027343 2.300781 2.296875v41.246094c0 1.269531-1.03125 2.300781-2.300781 2.300781zm0 0" fill="#f7cb15"/><path d="m299.421875 352.292969h-6.550781c-1 0-1.808594-.808594-1.808594-1.808594v-42.230469c0-1 .808594-1.808594 1.808594-1.808594h6.550781c.996094 0 1.804687.808594 1.804687 1.808594v42.230469c0 1-.808593 1.808594-1.804687 1.808594zm0 0" fill="#fede3a"/><path d="m302.089844 349.992188h-11.886719c-1.269531 0-2.304687-1.03125-2.304687-2.300782v2.300782c0 1.269531 1.03125 2.300781 2.304687 2.300781h11.886719c1.269531 0 2.300781-1.03125 2.300781-2.300781v-2.300782c0 1.269532-1.027344 2.300782-2.300781 2.300782zm0 0" fill="#f7cb15"/><path d="m187.664062 352.199219h-11.886718c-1.269532 0-2.300782-1.027344-2.300782-2.300781v-41.242188c0-1.269531 1.03125-2.300781 2.300782-2.300781h11.886718c1.269532 0 2.300782 1.03125 2.300782 2.300781v41.242188c0 1.273437-1.03125 2.300781-2.300782 2.300781zm0 0" fill="#e6e7e8"/><path d="m184.996094 352.199219h-6.550782c-.996093 0-1.804687-.808594-1.804687-1.804688v-42.234375c0-1 .808594-1.804687 1.804687-1.804687h6.550782c.996094 0 1.804687.804687 1.804687 1.804687v42.234375c0 .996094-.808593 1.804688-1.804687 1.804688zm0 0" fill="#fff"/><path d="m187.664062 349.898438h-11.886718c-1.269532 0-2.300782-1.027344-2.300782-2.296876v2.296876c0 1.273437 1.03125 2.300781 2.300782 2.300781h11.886718c1.269532 0 2.300782-1.027344 2.300782-2.300781v-2.296876c0 1.269532-1.03125 2.296876-2.300782 2.296876zm0 0" fill="#e6e7e8"/></svg>